<svg width="50" height="50" viewBox="0 0 50 50" fill="none" xmlns="http://www.w3.org/2000/svg">
<path d="M24.9999 5.46875C21.5808 5.46838 18.2215 6.36557 15.2579 8.0706C12.2943 9.77564 9.83021 12.2288 8.11198 15.1848C6.39376 18.1407 5.48161 21.496 5.46674 24.915C5.45187 28.3341 6.33479 31.6972 8.02724 34.668L6.26942 40.8398C6.15675 41.2406 6.15285 41.6641 6.25813 42.0669C6.3634 42.4697 6.57405 42.8371 6.86841 43.1315C7.16278 43.4258 7.53023 43.6365 7.933 43.7418C8.33576 43.847 8.75929 43.8431 9.16005 43.7305L15.3319 41.9727C17.9309 43.4525 20.835 44.3158 23.8204 44.4958C26.8057 44.6759 29.7925 44.1679 32.5505 43.0112C35.3085 41.8544 37.764 40.0797 39.7277 37.8239C41.6914 35.5681 43.1108 32.8915 43.8765 30.0004C44.6422 27.1093 44.7337 24.081 44.144 21.1489C43.5543 18.2169 42.2992 15.4594 40.4753 13.0892C38.6514 10.7189 36.3076 8.79914 33.6245 7.47792C30.9413 6.1567 27.9907 5.46931 24.9999 5.46875ZM24.9999 42.9688C21.7682 42.9762 18.5953 42.1054 15.8202 40.4492C15.6991 40.3875 15.5655 40.3541 15.4296 40.3516H15.2147L8.73036 42.207C8.59786 42.2426 8.45834 42.2426 8.32582 42.2071C8.1933 42.1717 8.07247 42.1019 7.97546 42.0049C7.87846 41.9079 7.8087 41.7871 7.77322 41.6545C7.73774 41.522 7.73778 41.3825 7.77333 41.25L9.6288 34.7656C9.68373 34.5614 9.65564 34.3437 9.55067 34.1602C7.52956 30.7493 6.69324 26.7659 7.17198 22.8302C7.65073 18.8946 9.41766 15.2278 12.1975 12.401C14.9774 9.57417 18.6141 7.74611 22.5412 7.20155C26.4683 6.657 30.4652 7.42653 33.9094 9.39026C37.3535 11.354 40.0515 14.4017 41.5831 18.0586C43.1147 21.7154 43.3938 25.7762 42.377 29.6082C41.3603 33.4403 39.1047 36.8285 35.9616 39.2451C32.8186 41.6616 28.9645 42.9708 24.9999 42.9688ZM34.8632 28.6133L30.8788 26.3477C30.5155 26.1395 30.1034 26.0317 29.6848 26.0351C29.2661 26.0386 28.8558 26.1532 28.496 26.3672L25.8007 27.9883C24.1771 27.1462 22.8536 25.8228 22.0116 24.1992L23.6327 21.5039C23.8467 21.1441 23.9613 20.7338 23.9648 20.3151C23.9682 19.8965 23.8603 19.4844 23.6522 19.1211L21.3866 15.1367C21.1985 14.8109 20.9281 14.5401 20.6025 14.3516C20.2768 14.1631 19.9074 14.0634 19.5311 14.0625C17.8769 14.0625 16.2902 14.7183 15.1186 15.8862C13.9471 17.0541 13.2863 18.6388 13.2811 20.293C13.2786 22.4491 13.701 24.5846 14.5244 26.5774C15.3477 28.5701 16.5558 30.381 18.0795 31.9066C19.6032 33.4321 21.4127 34.6423 23.4045 35.468C25.3962 36.2937 27.5312 36.7188 29.6874 36.7188H29.7069C31.3611 36.7136 32.9458 36.0528 34.1137 34.8813C35.2816 33.7097 35.9374 32.123 35.9374 30.4688C35.9365 30.0925 35.8368 29.7231 35.6483 29.3974C35.4598 29.0718 35.189 28.8014 34.8632 28.6133ZM29.7069 35.1562H29.6874C25.7488 35.1511 21.9733 33.5828 19.1901 30.796C16.4069 28.0092 14.8436 24.2316 14.8436 20.293C14.8488 19.0532 15.3449 17.8659 16.2235 16.991C17.102 16.1162 18.2913 15.625 19.5311 15.625C19.6312 15.6264 19.729 15.6542 19.8148 15.7057C19.9005 15.7571 19.9711 15.8304 20.0194 15.918L22.3046 19.9023C22.3712 20.0253 22.4062 20.1629 22.4062 20.3027C22.4062 20.4426 22.3712 20.5802 22.3046 20.7031L20.4686 23.75C20.401 23.8571 20.3619 23.9797 20.3551 24.1062C20.3482 24.2327 20.3739 24.3589 20.4296 24.4727C21.4467 26.7391 23.2608 28.5532 25.5272 29.5703C25.641 29.626 25.7672 29.6517 25.8937 29.6448C26.0201 29.638 26.1428 29.5989 26.2499 29.5312L29.2968 27.6953C29.4197 27.6286 29.5573 27.5937 29.6972 27.5937C29.837 27.5937 29.9746 27.6286 30.0976 27.6953L34.0819 29.9805C34.1695 30.0287 34.2428 30.0994 34.2942 30.1851C34.3457 30.2709 34.3735 30.3687 34.3749 30.4688C34.3749 31.7086 33.8837 32.8979 33.0089 33.7764C32.134 34.6549 30.9467 35.1511 29.7069 35.1562Z" fill="black"/>
</svg>
