<svg width="150" height="150" fill="none" xmlns="http://www.w3.org/2000/svg"><path d="M84.641 95.51c17.677 7.765 36.977 2.747 43.108-11.208 6.47-14.51-8.215-28.3-16.367-33.381C91.51 36.2 73.084 41.61 70.41 45.8l-6.675 10.378c-6.13 13.956 3.23 31.564 20.906 39.33z" fill="#935427"/><path fill-rule="evenodd" clip-rule="evenodd" d="m60.973 54.696 6.802-10.576.004-.006c1.238-1.934 3.703-3.356 6.31-4.292 2.779-.997 6.309-1.657 10.342-1.677 8.078-.04 18.27 2.489 28.711 10.191 4.343 2.727 10.36 7.707 14.517 14.02 4.209 6.395 6.773 14.623 2.948 23.21-7.089 16.124-28.636 20.97-47.223 12.805-18.59-8.167-29.596-27.32-22.51-43.449l.1-.226zm66.776 29.606c6.47-14.51-8.216-28.3-16.367-33.381-19.872-14.72-38.298-9.31-40.972-5.12l-6.675 10.378c-6.13 13.956 3.229 31.564 20.906 39.33 17.677 7.766 36.977 2.748 43.108-11.207z" fill="#62310F"/><path d="M131.429 78.782c-6.131 13.956-25.431 18.974-43.108 11.208-17.677-7.766-27.037-25.375-20.906-39.33 6.13-13.956 25.431-18.974 43.108-11.208 17.677 7.766 27.037 25.375 20.906 39.33z" fill="#AE6937"/><path fill-rule="evenodd" clip-rule="evenodd" d="M134.29 80.039c-7.086 16.13-28.636 20.978-47.226 12.812-18.59-8.167-29.596-27.32-22.51-43.448 7.085-16.13 28.636-20.979 47.226-12.812s29.596 27.319 22.51 43.448zm-45.97 9.95c17.678 7.766 36.978 2.749 43.109-11.207 6.131-13.956-3.229-31.564-20.906-39.33-17.677-7.766-36.977-2.748-43.108 11.207-6.131 13.956 3.229 31.565 20.906 39.33z" fill="#784018"/><path fill-rule="evenodd" clip-rule="evenodd" d="M92.773 39.063c-9.38 0-16.95 5.33-19.487 7.927a1.563 1.563 0 1 1-2.236-2.183c2.932-3.002 11.26-8.87 21.724-8.87a1.562 1.562 0 1 1 0 3.126z" fill="#975728"/><path fill-rule="evenodd" clip-rule="evenodd" d="M98.91 93.13c9.063-1.547 16.595-6.554 20.019-14.348 6.131-13.956-3.229-31.564-20.906-39.33a43.518 43.518 0 0 0-10.59-3.141c7.165-1.224 15.286-.288 23.09 3.141 17.677 7.766 27.037 25.374 20.906 39.33-4.915 11.19-18.296 16.633-32.519 14.349z" fill="#93592E"/><path d="M58.057 114.255c18.015-6.944 28.176-24.103 22.693-38.326-5.482-14.223-44.959-12.756-62.975-5.812v9.53c4.889 3.359 8.048 8.688 8.048 14.688 0 .698-.043 1.387-.126 2.065 5.244.664 10.003 3.4 12.891 7.963 2.452 3.875 3.136 8.404 2.28 12.758 5.514.269 11.405-.636 17.189-2.866z" fill="#B8692F"/><path fill-rule="evenodd" clip-rule="evenodd" d="M14.65 70.117c0-1.292.796-2.45 2.001-2.916 9.493-3.659 24.31-5.795 37.444-5.238 6.581.279 12.948 1.241 18.118 3.149 5.095 1.88 9.607 4.904 11.453 9.693 6.337 16.438-5.54 35.063-24.485 42.366-6.181 2.382-12.506 3.362-18.465 3.071a3.124 3.124 0 0 1-2.914-3.723c.715-3.639.134-7.343-1.854-10.485-2.338-3.694-6.225-5.974-10.644-6.534a3.125 3.125 0 0 1-2.709-3.481c.068-.552.103-1.114.103-1.684 0-4.851-2.549-9.265-6.692-12.112a3.125 3.125 0 0 1-1.356-2.576v-9.53zm3.125 0c18.016-6.944 57.493-8.411 62.975 5.812 5.483 14.222-4.677 31.382-22.693 38.326-4.688 1.807-9.446 2.744-14.017 2.892a39.38 39.38 0 0 1-3.172-.026 18.63 18.63 0 0 0 .346-3.112c.087-3.351-.755-6.689-2.626-9.646-2.887-4.563-7.647-7.299-12.89-7.963.082-.678.125-1.367.125-2.065 0-6-3.159-11.329-8.048-14.688v-9.53z" fill="#673512"/><path fill-rule="evenodd" clip-rule="evenodd" d="M39.258 106.62c.863 0 1.562.7 1.562 1.563v8.984a1.563 1.563 0 1 1-3.125 0v-8.984c0-.863.7-1.563 1.563-1.563z" fill="#673512"/><path fill-rule="evenodd" clip-rule="evenodd" d="M17.775 77.434c19.372-3.228 44.61-1.73 48.913 9.432 3.297 8.556.935 18.174-5.393 25.993 15.97-7.651 24.6-23.584 19.455-36.93-5.482-14.223-44.959-12.756-62.975-5.812v7.317z" fill="#9D5622"/><path fill-rule="evenodd" clip-rule="evenodd" d="M58.057 104.88c18.015-6.944 28.176-24.104 22.693-38.326C75.268 52.33 56.22 46.43 38.203 53.374c-9.208 3.55-16.364 9.768-20.428 16.898 4.889 3.359 8.048 8.688 8.048 14.688 0 .698-.043 1.387-.126 2.065 5.244.664 10.003 3.4 12.891 7.963 2.452 3.874 3.136 8.404 2.28 12.758 5.514.269 11.405-.636 17.189-2.866z" fill="#CC7A3D"/><path fill-rule="evenodd" clip-rule="evenodd" d="M16.006 72.848a3.125 3.125 0 0 1-.946-4.123c4.449-7.805 12.193-14.479 22.02-18.266 18.945-7.303 40.25-1.467 46.586 14.97 6.336 16.439-5.54 35.064-24.485 42.367-6.181 2.383-12.506 3.362-18.465 3.072a3.128 3.128 0 0 1-2.914-3.724c.715-3.639.134-7.343-1.855-10.485-2.337-3.694-6.224-5.974-10.643-6.534a3.125 3.125 0 0 1-2.709-3.481c.068-.552.103-1.114.103-1.684 0-4.851-2.549-9.265-6.692-12.112zm1.77-2.576c4.063-7.13 11.22-13.348 20.427-16.898 18.016-6.944 37.065-1.043 42.547 13.18 5.483 14.222-4.678 31.382-22.693 38.326-4.689 1.807-9.447 2.744-14.017 2.892a39.38 39.38 0 0 1-3.172-.026 18.63 18.63 0 0 0 .346-3.112c.087-3.351-.755-6.69-2.626-9.646-2.888-4.563-7.647-7.299-12.891-7.963.083-.678.126-1.367.126-2.065 0-6-3.16-11.329-8.048-14.688z" fill="#773E15"/><path fill-rule="evenodd" clip-rule="evenodd" d="M21.12 68.923a1.563 1.563 0 0 1 2.145-.536c3.128 1.877 5.203 5.06 6.535 8.095a29.937 29.937 0 0 1 2.05 6.876c4.655.795 8.073 4.09 10.427 7.697 2.201 3.372 3.612 7.211 4.348 10.158 4.768-.712 14.341-3.454 22.703-10.239a1.563 1.563 0 0 1 1.969 2.427c-9.817 7.966-21.173 10.707-25.758 11.086l-1.393.115-.27-1.371c-.54-2.749-1.909-6.934-4.215-10.468-2.317-3.549-5.392-6.174-9.298-6.438l-1.308-.089-.14-1.304c-.18-1.68-.778-4.462-1.977-7.195-1.207-2.752-2.941-5.266-5.281-6.67a1.562 1.562 0 0 1-.536-2.144z" fill="#E08847"/><path fill-rule="evenodd" clip-rule="evenodd" d="M58.747 99.2c.323.801-.063 1.711-.864 2.035-5.21 2.105-9.784 3.04-12.344 3.252a1.563 1.563 0 0 1-.258-3.114c2.21-.183 6.476-1.033 11.432-3.036.8-.323 1.71.063 2.034.864z" fill="#F29754"/><path d="M52.31 58.19c-.03 1.411-1.516 2.524-3.319 2.486-1.803-.038-3.24-1.212-3.211-2.622.03-1.41 1.515-2.524 3.318-2.486 1.803.038 3.241 1.212 3.212 2.623zM60.337 58.623c-.02.966-1.037 1.728-2.271 1.702-1.235-.026-2.219-.83-2.199-1.795.02-.966 1.038-1.728 2.272-1.702 1.234.026 2.219.83 2.198 1.795zM70.151 61.734c-.02.966-1.037 1.727-2.272 1.702-1.234-.026-2.218-.83-2.198-1.796.02-.965 1.037-1.727 2.272-1.701 1.234.026 2.218.83 2.198 1.795zM62.78 63.279c-.015.718-.773 1.285-1.691 1.266-.919-.02-1.652-.617-1.637-1.336.015-.719.772-1.286 1.691-1.267.92.02 1.652.618 1.637 1.337zM55.014 53.527c-.015.72-.772 1.286-1.69 1.267-.92-.02-1.652-.617-1.637-1.336.015-.719.772-1.286 1.69-1.267.92.02 1.652.618 1.637 1.336zM65.567 56.13c-.015.719-.772 1.286-1.691 1.267-.919-.02-1.651-.618-1.636-1.337.014-.718.771-1.285 1.69-1.266.92.02 1.652.617 1.637 1.336zM76.38 63.517c-.016.72-.773 1.286-1.692 1.267-.918-.02-1.651-.618-1.636-1.336.015-.719.772-1.286 1.69-1.267.92.02 1.652.618 1.637 1.336zM36.693 64.13c-.007.358-.384.64-.842.631-.457-.01-.822-.307-.815-.665.008-.358.385-.64.842-.631.458.01.823.307.815.665zM41.663 56.2c-.016.719-.773 1.286-1.691 1.267-.92-.02-1.652-.618-1.637-1.337.015-.718.772-1.285 1.691-1.266.919.02 1.651.617 1.636 1.336zM44.098 61.309c-.015.719-.772 1.286-1.69 1.267-.92-.02-1.652-.618-1.637-1.337.015-.719.772-1.286 1.69-1.267.92.02 1.652.618 1.637 1.337zM67.968 67.254c-.015.718-.772 1.285-1.69 1.266-.92-.019-1.652-.617-1.637-1.336.015-.719.772-1.286 1.69-1.267.92.02 1.652.618 1.637 1.337zM36.887 59.65c-.016.718-.773 1.285-1.691 1.266-.92-.019-1.652-.617-1.637-1.336.015-.719.772-1.286 1.691-1.267.919.02 1.652.618 1.637 1.337zM55.774 64.21c-.019.881-.947 1.577-2.074 1.553-1.127-.023-2.026-.757-2.007-1.639.018-.881.947-1.577 2.074-1.553 1.127.023 2.025.757 2.007 1.639z" fill="#BE6E34"/><path d="M97.713 51.6c-1.089 2.166-4.215 2.793-6.983 1.401-2.768-1.39-4.129-4.274-3.04-6.44 1.088-2.165 4.214-2.792 6.982-1.4 2.768 1.39 4.13 4.274 3.04 6.44z" fill="#3C1D0C"/><path d="M113.011 46.798c-.634 1.261-2.454 1.626-4.065.816-1.612-.81-2.404-2.488-1.771-3.749.634-1.26 2.454-1.626 4.065-.816 1.612.81 2.404 2.489 1.771 3.75zM120.07 50.644c-.434.863-1.68 1.113-2.783.558-1.103-.554-1.646-1.704-1.212-2.567.434-.862 1.68-1.112 2.783-.558 1.103.555 1.646 1.704 1.212 2.567zM127.589 57.675c-.433.863-1.679 1.113-2.782.558-1.103-.554-1.646-1.703-1.212-2.566.434-.863 1.679-1.113 2.783-.559 1.103.555 1.645 1.704 1.211 2.567zM120.271 55.897c-.323.642-1.25.828-2.071.415-.821-.412-1.225-1.268-.902-1.91.323-.643 1.25-.829 2.071-.416.821.413 1.225 1.268.902 1.91zM104.256 40.42c-.323.642-1.251.828-2.072.415-.821-.413-1.225-1.268-.902-1.91.323-.643 1.251-.829 2.072-.416.821.413 1.225 1.268.902 1.91zM104.256 46.08c-.323.641-1.251.828-2.072.415-.821-.413-1.225-1.268-.902-1.91.323-.643 1.251-.83 2.072-.416.821.412 1.225 1.268.902 1.91zM123.245 61.718c-.323.642-1.25.828-2.072.415-.821-.412-1.225-1.268-.902-1.91.323-.642 1.251-.828 2.072-.416.821.413 1.225 1.268.902 1.91zM98.46 41.478c-.322.642-1.25.829-2.07.416-.822-.413-1.226-1.268-.903-1.91.323-.643 1.25-.83 2.072-.416.82.413 1.225 1.268.902 1.91zM113.547 53.722c-.396.788-1.533 1.017-2.54.51-1.008-.506-1.503-1.555-1.107-2.343.396-.788 1.534-1.016 2.541-.51s1.502 1.556 1.106 2.343z" fill="#D78346"/><path d="M43.248 68.8c.697 1.841-.645 4.057-2.999 4.95-2.354.891-4.828.121-5.525-1.72-.698-1.841.644-4.057 2.998-4.95 2.354-.891 4.828-.121 5.526 1.72zM70.18 75.372c.858 2.267-.794 4.994-3.69 6.091-2.898 1.098-5.942.15-6.801-2.115-.859-2.267.794-4.994 3.69-6.091 2.897-1.098 5.942-.15 6.8 2.115zM49.223 86.475c.532 1.402-.49 3.09-2.283 3.769-1.792.679-3.675.093-4.207-1.31-.531-1.401.491-3.089 2.283-3.768 1.793-.679 3.676-.093 4.207 1.31zM102.494 75.797c-1.089 2.166-4.215 2.793-6.983 1.401-2.767-1.39-4.129-4.274-3.04-6.44 1.088-2.165 4.214-2.792 6.982-1.4 2.768 1.39 4.13 4.274 3.041 6.44zM124.297 70.278c-1.089 2.165-4.215 2.792-6.983 1.4-2.768-1.39-4.129-4.274-3.041-6.44 1.089-2.164 4.215-2.792 6.983-1.4 2.768 1.391 4.129 4.274 3.041 6.44z" fill="#3C1D0C"/></svg>