<?xml version="1.0" encoding="utf-8"?>
<!-- Generator: Adobe Illustrator 24.0.2, SVG Export Plug-In . SVG Version: 6.00 Build 0)  -->
<svg version="1.1" xmlns="http://www.w3.org/2000/svg" xmlns:xlink="http://www.w3.org/1999/xlink" x="0px" y="0px"
	 viewBox="0 0 24 24" style="enable-background:new 0 0 24 24;" xml:space="preserve">
<style type="text/css">
	.st0{fill:none;}
	.st1{fill:#e5e5e5;}
</style>
<g id="bounding_box">
	<rect class="st0" width="24" height="24"/>
</g>
<g id="design">
	<g>
		<path class="st1" d="M18.9,4.76C16.96,2.92,14.42,1.94,11.76,2c-2.67,0.07-5.16,1.17-7,3.1C2.92,7.04,1.94,9.57,2,12.24
			c0.07,2.67,1.17,5.16,3.1,7C6.98,21.03,9.41,22,11.99,22h0.25c2.67-0.07,5.16-1.17,7-3.1c1.79-1.88,2.76-4.32,2.76-6.91v-0.23
			C21.93,9.09,20.83,6.6,18.9,4.76z M12.88,17.88c-0.12,0.12-0.25,0.21-0.4,0.27c-0.15,0.07-0.32,0.1-0.48,0.1
			c-0.33,0-0.65-0.13-0.88-0.37c-0.24-0.23-0.37-0.54-0.37-0.88c0-0.33,0.13-0.65,0.37-0.88c0.28-0.29,0.72-0.43,1.12-0.35
			c0.08,0.02,0.16,0.04,0.24,0.08c0.07,0.03,0.15,0.07,0.21,0.11c0.07,0.05,0.13,0.1,0.19,0.16c0.24,0.23,0.37,0.55,0.37,0.88
			C13.25,17.33,13.12,17.65,12.88,17.88z M13.86,12.36C13.32,12.69,13,13.21,13,13.75c0,0.55-0.45,1-1,1s-1-0.45-1-1
			c0-1.24,0.68-2.4,1.82-3.1c0.45-0.28,0.91-0.91,0.69-1.77c-0.13-0.51-0.56-0.94-1.08-1.07c-0.5-0.13-0.99-0.04-1.39,0.27
			c-0.39,0.3-0.61,0.75-0.61,1.24c0,0.55-0.44,1-1,1c-0.55,0-1-0.45-1-1c0-1.12,0.51-2.14,1.39-2.82c0.88-0.69,2.01-0.91,3.11-0.63
			c1.22,0.31,2.2,1.3,2.52,2.51C15.85,9.94,15.21,11.53,13.86,12.36z"/>
	</g>
</g>
</svg>
